<svg xmlns="http://www.w3.org/2000/svg" viewBox="0 0 216.99 226.78">
  <defs>
    <style>
      .cls-1 {
        fill: #fff;
      }

      .cls-2 {
        fill: #2c2717;
      }

      .cls-3 {
        fill: #f2cb05;
      }

      .cls-4 {
        fill: #293a6f;
      }

      .cls-5 {
        fill: none;
        stroke: #2c2718;
        stroke-miterlimit: 10;
        stroke-width: 0.67px;
      }

      .cls-6 {
        fill: #2c2718;
      }
    </style>
  </defs>
  <g id="catBack">
    <g>
      <rect class="cls-1" x="0.62" y="142.39" width="216.33" height="84.27"/>
      <polygon class="cls-2" points="79.81 177.19 108.53 142.65 108.67 142.61 108.67 142.4 0.26 142.4 0.26 143.74 0.55 177.19 23.87 148.02 45.41 184.58 65.85 146.37 79.81 177.19"/>
      <polygon class="cls-2" points="24.02 221.27 0.62 192.13 0.4 226.66 108.69 226.66 79.96 192.1 66 222.92 45.79 184.7 24.02 221.27"/>
      <g>
        <polygon class="cls-2" points="137.44 177.19 108.71 142.65 108.57 142.61 108.57 142.4 216.99 142.4 216.99 143.74 216.98 177.31 193.38 148.02 171.84 184.58 151.4 146.37 137.44 177.19"/>
        <polygon class="cls-2" points="193.61 221.27 216.93 192.1 216.96 226.78 108.94 226.66 137.66 192.1 151.63 222.92 171.84 184.7 193.61 221.27"/>
      </g>
    </g>
    <path class="cls-2" d="M410,132.87l-27.27,59.52c0,.27-14.65-6.3-29.24-6.3-10.35,0-25.87,4.5-25.42,6.08h0l-13.19-59.3L290.53,191l-14.47,30.22L247.2,235.39,273,242.27l-32.09,10L271.57,263,245.1,275.52l208.2,0L429,260.75l28.54-7.4L431.1,240.67l25.37-4.23-26.42-10.56Z" transform="translate(-240.86 -132.87)"/>
  </g>
  <g id="Lager_5" data-name="Lager 5">
    <g>
      <path class="cls-3" d="M382.21,232.39c-7.8-.13-17.83,3.74-17.89,7.55s9.85,6.12,17.65,6.26,18.94-2.7,19-6.52S390,232.53,382.21,232.39Z" transform="translate(-240.86 -132.87)"/>
      <path class="cls-3" d="M325.42,233.09c-7.8-.14-17.82,3.73-17.89,7.54s9.85,6.13,17.65,6.26,18.94-2.7,19-6.51S333.23,233.22,325.42,233.09Z" transform="translate(-240.86 -132.87)"/>
    </g>
  </g>
  <g id="nose">
    <g>
      <path class="cls-4" d="M348.32,263.53c1.72,3.29,3,6,6.66,6s5.27-2.26,6.65-6c1.15-3.13,3.85-6.5-6.65-6C351.21,257.67,344.36,256,348.32,263.53Z" transform="translate(-240.86 -132.87)"/>
      <path class="cls-5" d="M354.93,269.6s.19-14.37.13-11.5" transform="translate(-240.86 -132.87)"/>
    </g>
  </g>
  <g id="eyesLeft">
    <path class="cls-6" d="M380.56,233c-.17.18-.17.49-.24.74s-.1.53-.14.79c-.09.53-.15,1.06-.22,1.58a24.91,24.91,0,0,0-.2,3.09c0,1.06,0,2.11,0,3.15,0,.52,0,1,.13,1.56a3.83,3.83,0,0,0,.15.75.9.9,0,0,0,.43.6,1,1,0,0,1-.77-.4,3.9,3.9,0,0,1-.48-.74,7.29,7.29,0,0,1-.55-1.61,14.33,14.33,0,0,1-.35-3.31,10.48,10.48,0,0,1,.54-3.34,11,11,0,0,1,.64-1.55c.14-.24.27-.49.43-.72S380.28,233,380.56,233Z" transform="translate(-240.86 -132.87)"/>
    <path class="cls-6" d="M323.77,233.64a2,2,0,0,0-.24.75c0,.26-.1.52-.13.79-.09.52-.16,1-.23,1.57a27,27,0,0,0-.2,3.09c0,1.06,0,2.11,0,3.16,0,.52.05,1,.13,1.55a3.69,3.69,0,0,0,.15.75.86.86,0,0,0,.43.6.93.93,0,0,1-.77-.4,3.57,3.57,0,0,1-.47-.74,7.33,7.33,0,0,1-.56-1.61,14.33,14.33,0,0,1-.35-3.31,10.37,10.37,0,0,1,.54-3.33,11,11,0,0,1,.64-1.55c.14-.25.27-.49.43-.73S323.49,233.73,323.77,233.64Z" transform="translate(-240.86 -132.87)"/>
  </g>
  <g id="eyesRight">
    <path class="cls-6" d="M327,233.52c.29.09.43.38.6.59s.3.48.44.73a10.09,10.09,0,0,1,.64,1.55,10.65,10.65,0,0,1,.54,3.33,14.9,14.9,0,0,1-.35,3.31,7.88,7.88,0,0,1-.56,1.61,3.47,3.47,0,0,1-.48.74,1,1,0,0,1-.76.4.89.89,0,0,0,.42-.6,4.77,4.77,0,0,0,.16-.75,13.48,13.48,0,0,0,.12-1.56c0-1,0-2.09,0-3.15a23.11,23.11,0,0,0-.2-3.09c-.07-.52-.13-1-.22-1.57,0-.27-.09-.53-.14-.8A1.62,1.62,0,0,0,327,233.52Z" transform="translate(-240.86 -132.87)"/>
    <path class="cls-6" d="M383.75,232.8c.28.09.43.37.6.59a7.6,7.6,0,0,1,.43.72,10,10,0,0,1,.65,1.55A11.07,11.07,0,0,1,386,239a14.75,14.75,0,0,1-.35,3.3,8,8,0,0,1-.56,1.62,3.83,3.83,0,0,1-.48.73.94.94,0,0,1-.77.41.9.9,0,0,0,.43-.61,4.54,4.54,0,0,0,.16-.75c.07-.51.09-1,.12-1.55,0-1,0-2.1,0-3.15a23.26,23.26,0,0,0-.2-3.1c-.07-.52-.13-1-.22-1.57,0-.26-.09-.52-.14-.79S383.92,233,383.75,232.8Z" transform="translate(-240.86 -132.87)"/>
  </g>
</svg>
