<svg id="Lager_1" data-name="Lager 1" xmlns="http://www.w3.org/2000/svg" viewBox="0 0 216.99 227.07"><defs><style>.cls-1{fill:#2c2717;}.cls-2{fill:#f2cb05;}.cls-3{fill:#0b0b0b;}.cls-4{fill:#293a6f;}.cls-5{fill:#233465;stroke:#0b0b0b;stroke-miterlimit:10;stroke-width:0.67px;}</style></defs><polygon class="cls-1" points="79.55 177.46 108.28 142.91 108.42 142.87 108.42 142.66 0 142.66 0 144 0.29 177.46 23.61 148.28 45.15 184.84 65.59 146.63 79.55 177.46"/><polygon class="cls-1" points="23.81 221.12 0.47 191.97 0.19 226.5 108.48 226.5 79.75 191.94 65.79 222.77 45.58 184.55 23.81 221.12"/><polygon class="cls-1" points="137.44 177.48 108.71 142.94 108.57 142.9 108.57 142.69 216.99 142.69 216.99 144.03 216.98 177.59 193.38 148.31 171.84 184.86 151.4 146.65 137.44 177.48"/><polygon class="cls-1" points="193.61 221.55 216.93 192.38 216.96 227.07 108.94 226.94 137.66 192.38 151.63 223.21 171.84 184.99 193.61 221.55"/><path class="cls-1" d="M481.19,184l-27.27,59.52c0,.27-14.65-6.3-29.24-6.3-10.35,0-25.87,4.5-25.42,6.07h0L386.07,184,361.76,242.1l-14.47,30.22-28.86,14.17,25.75,6.88-32.09,10,30.71,10.69-26.47,12.53,208.2,0-24.31-14.8,28.53-7.4-26.42-12.68,25.37-4.23L501.27,277Z" transform="translate(-312.09 -183.97)"/><path class="cls-2" d="M453.81,284c-7.81-.14-17.83,3.73-17.9,7.55s9.85,6.12,17.66,6.25,18.94-2.7,19-6.51S461.61,284.1,453.81,284Z" transform="translate(-312.09 -183.97)"/><path class="cls-3" d="M452,284.63a1.62,1.62,0,0,0-.24.74c0,.27-.11.53-.14.79-.09.53-.16,1-.23,1.57a27.17,27.17,0,0,0-.2,3.1c0,1.05,0,2.11,0,3.15a13.31,13.31,0,0,0,.12,1.55,3.69,3.69,0,0,0,.15.75.86.86,0,0,0,.43.6.9.9,0,0,1-.76-.4,3.41,3.41,0,0,1-.48-.73,8,8,0,0,1-.56-1.62,14.75,14.75,0,0,1-.35-3.3,10.76,10.76,0,0,1,.54-3.34,11,11,0,0,1,.64-1.55,7.71,7.71,0,0,1,.44-.72C451.51,285,451.66,284.71,452,284.63Z" transform="translate(-312.09 -183.97)"/><path class="cls-2" d="M397,284.66c-7.81-.13-17.83,3.74-17.89,7.55s9.85,6.12,17.65,6.26,18.94-2.7,19-6.51S404.82,284.8,397,284.66Z" transform="translate(-312.09 -183.97)"/><path class="cls-3" d="M395.16,285.32a1.7,1.7,0,0,0-.24.75c-.05.26-.1.52-.14.79-.09.52-.15,1.05-.22,1.57a23.11,23.11,0,0,0-.2,3.09c0,1.06,0,2.11,0,3.16,0,.52.05,1,.12,1.55a4.77,4.77,0,0,0,.16.75.89.89,0,0,0,.42.6,1,1,0,0,1-.76-.4,3.47,3.47,0,0,1-.48-.74,7.88,7.88,0,0,1-.56-1.61,14.9,14.9,0,0,1-.35-3.31,10.65,10.65,0,0,1,.54-3.33,10.52,10.52,0,0,1,.64-1.55c.14-.25.28-.5.44-.73S394.88,285.41,395.16,285.32Z" transform="translate(-312.09 -183.97)"/><path class="cls-4" d="M418.08,315.17c1.72,3.29,3,6,6.66,6s5.27-2.26,6.65-6c1.15-3.13,3.85-6.5-6.65-6C421,309.31,414.12,307.6,418.08,315.17Z" transform="translate(-312.09 -183.97)"/><path class="cls-5" d="M424.69,321.24s.19-14.38.13-11.5" transform="translate(-312.09 -183.97)"/></svg>