<svg xmlns="http://www.w3.org/2000/svg" viewBox="0 0 216.99 227.07"><defs><style>.cls-1{fill:#2c2717;}.cls-2{fill:#293a6f;}.cls-3{fill:#233465;stroke:#0b0b0b;stroke-miterlimit:10;stroke-width:0.67px;}.cls-4{fill:#f2cb05;}.cls-5{fill:#0b0b0b;}</style></defs><g id="cat"><polygon class="cls-1" points="79.55 177.46 108.28 142.91 108.42 142.87 108.42 142.66 0 142.66 0 144 0.29 177.46 23.61 148.28 45.15 184.84 65.59 146.63 79.55 177.46"/><polygon class="cls-1" points="23.81 221.12 0.47 191.97 0.19 226.5 108.48 226.5 79.75 191.94 65.79 222.77 45.58 184.55 23.81 221.12"/><polygon class="cls-1" points="137.44 177.48 108.71 142.94 108.57 142.9 108.57 142.69 216.99 142.69 216.99 144.03 216.98 177.59 193.38 148.31 171.84 184.86 151.4 146.65 137.44 177.48"/><polygon class="cls-1" points="193.61 221.55 216.93 192.38 216.96 227.07 108.94 226.94 137.66 192.38 151.63 223.21 171.84 184.99 193.61 221.55"/><path class="cls-1" d="M314.31,213.87,287,273.4c0,.26-14.66-6.3-29.25-6.3-10.34,0-25.86,4.5-25.41,6.07h0l-13.19-59.3L194.88,272,180.4,302.22l-28.86,14.17,25.76,6.89-32.1,10L175.92,344l-26.47,12.53,208.19,0-24.31-14.8,28.54-7.4-26.42-12.68,25.36-4.23-26.42-10.57Z" transform="translate(-145.2 -213.87)"/><path class="cls-2" d="M251.19,345.08c1.72,3.28,3,6,6.66,6s5.27-2.26,6.66-6c1.15-3.13,3.84-6.51-6.66-6C254.09,339.22,247.24,337.5,251.19,345.08Z" transform="translate(-145.2 -213.87)"/><path class="cls-3" d="M257.8,351.15s.2-14.38.14-11.51" transform="translate(-145.2 -213.87)"/></g><g id="eyes"><path class="cls-4" d="M286.64,313.76c-7.8-.14-17.82,3.73-17.89,7.55s9.85,6.12,17.66,6.25,18.94-2.7,19-6.51S294.45,313.89,286.64,313.76Z" transform="translate(-145.2 -213.87)"/><path class="cls-5" d="M284.78,314.42a1.9,1.9,0,0,0-.24.74c-.05.27-.1.53-.13.79-.09.53-.16,1.05-.23,1.57a27.17,27.17,0,0,0-.2,3.1c0,1.05,0,2.11,0,3.15,0,.52.05,1,.13,1.55a3.69,3.69,0,0,0,.15.75.86.86,0,0,0,.43.6.92.92,0,0,1-.77-.4,4.38,4.38,0,0,1-.48-.73,7.94,7.94,0,0,1-.55-1.62,14.19,14.19,0,0,1-.35-3.3,10.48,10.48,0,0,1,.54-3.34,11,11,0,0,1,.64-1.55c.14-.24.27-.49.43-.72S284.5,314.5,284.78,314.42Z" transform="translate(-145.2 -213.87)"/><path class="cls-4" d="M229.86,314.45c-7.81-.13-17.83,3.74-17.9,7.55s9.85,6.12,17.66,6.26,18.94-2.7,19-6.51S237.66,314.59,229.86,314.45Z" transform="translate(-145.2 -213.87)"/><path class="cls-5" d="M228,315.11a1.85,1.85,0,0,0-.25.75c0,.26-.1.52-.13.79-.09.52-.16,1.05-.23,1.57a27,27,0,0,0-.2,3.09c0,1.06,0,2.11,0,3.16,0,.52.05,1,.13,1.55a3.83,3.83,0,0,0,.15.75.9.9,0,0,0,.43.6,1,1,0,0,1-.76-.4,3.47,3.47,0,0,1-.48-.74,7.88,7.88,0,0,1-.56-1.61,14.9,14.9,0,0,1-.35-3.31,10.65,10.65,0,0,1,.54-3.33,10.52,10.52,0,0,1,.64-1.55,6.73,6.73,0,0,1,.44-.73C227.56,315.49,227.71,315.2,228,315.11Z" transform="translate(-145.2 -213.87)"/></g></svg>