<svg id="Lager_1" data-name="Lager 1" xmlns="http://www.w3.org/2000/svg" viewBox="0 0 404.36 448.8"><defs><style>.cls-1,.cls-2,.cls-3{fill:none;stroke:#21305a;}.cls-1{stroke-miterlimit:10;stroke-width:1.87px;}.cls-2,.cls-3{stroke-miterlimit:10;}.cls-2{stroke-width:1.87px;}.cls-3{stroke-width:2.42px;}</style></defs><path id="Path_39" data-name="Path 39" class="cls-1" d="M387.57,442.72c-7.59,9-9.79,12.07-19.76,20.46" transform="translate(-95.48 -38.8)"/><path id="Path_41" data-name="Path 41" class="cls-1" d="M243.34,462.41c-5.57,10.6-7.1,14.13-15.07,24.63" transform="translate(-95.48 -38.8)"/><path id="Path_34" data-name="Path 34" class="cls-2" d="M109.45,59.1a52.24,52.24,0,0,1-3.88,10.31" transform="translate(-95.48 -38.8)"/><path id="Path_35" data-name="Path 35" class="cls-2" d="M351.92,75C343,82.62,340.31,85.3,329.11,92" transform="translate(-95.48 -38.8)"/><path id="Path_36" data-name="Path 36" class="cls-2" d="M122.11,431.32c4.13,7.94,5.6,10.48,9,19.12" transform="translate(-95.48 -38.8)"/><path id="Path_37" data-name="Path 37" class="cls-2" d="M243,169.9c-7.22,9.56-9.29,12.8-18.86,21.87" transform="translate(-95.48 -38.8)"/><path id="Path_39-2" data-name="Path 39-2" class="cls-2" d="M95.48,273.45c11.78,0,15.54-.26,28.38,2" transform="translate(-95.48 -38.8)"/><path id="Path_42" data-name="Path 42" class="cls-2" d="M456.16,65.52c-7.51,9.08-9.68,12.17-19.56,20.66" transform="translate(-95.48 -38.8)"/><path id="Path_43" data-name="Path 43" class="cls-2" d="M478.82,401.65c.06,8.12.27,10.7-1.09,19.77" transform="translate(-95.48 -38.8)"/><path id="Path_44" data-name="Path 44" class="cls-2" d="M499,239.76c-5.46,10.65-6.95,14.2-14.82,24.78" transform="translate(-95.48 -38.8)"/><path id="Path_45" data-name="Path 45" class="cls-2" d="M260.41,292.42c-.73,11.75-.66,15.53-3.66,28.21" transform="translate(-95.48 -38.8)"/><path id="Path_46" data-name="Path 46" class="cls-2" d="M253,55.91c-1.56-6.89-2.24-9-2.6-17.06" transform="translate(-95.48 -38.8)"/><path id="Path_42-2" data-name="Path 42" class="cls-3" d="M399.94,254c-7.5,15.29-9.67,20.51-19.56,34.82" transform="translate(-95.48 -38.8)"/></svg>