<svg id="Lager_1" data-name="Lager 1" xmlns="http://www.w3.org/2000/svg" viewBox="0 0 311.11 224.01"><defs><style>.cls-1{fill:#21305a;}</style></defs><path class="cls-1" d="M238.24,212.25c0-7.21,3.15-10.88,9.55-10.88h33.35c10.75,0,16.29,10,16.29,20.21,0,8.88-3.58,16.31-11.4,18.09,7.71.89,12.7,9.43,12.7,19.65,0,11-5.54,20.2-19,20.2H248.34q-10.11,0-10.1-11Zm20.2,10.88v10.1h15.75c2.93,0,4.34-2.66,4.34-5.44,0-2.33-1.3-4.66-4.34-4.66Zm0,25.86v8.88h15.75a4.19,4.19,0,0,0,4.34-4.44,4.14,4.14,0,0,0-4.34-4.44Z" transform="translate(-237.07 -201.04)"/><path class="cls-1" d="M317.62,279.52c-6.95,0-10.42-3.66-10.42-10.88V211.7c0-6.77,4.78-10.66,10.42-10.66s10.54,3.89,10.54,10.66v46.17h11.19c6.51,0,10,4.89,10,10.77s-3.48,10.88-10,10.88Z" transform="translate(-237.07 -201.04)"/><path class="cls-1" d="M399.18,264.42H376.59L373.23,273c-2.07,4.77-5.65,7-9.24,7-5.64,0-11.4-4-11.4-10.21a9.36,9.36,0,0,1,.76-4.33l25.85-57.94c1.74-3.89,4-6.44,9.78-6.44,5.53,0,7.92,2.55,9.55,6.55l23.57,57.83a10,10,0,0,1,.76,4.33c0,5.88-5.65,10.21-11.29,10.21-4.67,0-7.72-2.33-9.34-7Zm-16-17h10.21l-4.67-14.1Z" transform="translate(-237.07 -201.04)"/><path class="cls-1" d="M462.28,223.35c-11.73,0-17.59,8.44-17.59,17.1,0,8.88,5.86,17.42,17.48,17.42H470c7.17,0,10.54,5.44,10.54,10.77,0,5.77-3.48,10.88-10.54,10.88h-7.71c-25.31,0-38-19.09-38-38.52,0-19.65,13.14-39.63,39.64-39.63H470c6.95,0,10.75,5.44,10.75,11s-3.8,11-10.75,11Z" transform="translate(-237.07 -201.04)"/><path class="cls-1" d="M509,269.2c0,7.1-4.89,10.76-10.54,10.76s-10.53-3.66-10.53-10.76V211.7c0-6.77,4.77-10.66,10.53-10.66S509,204.93,509,211.7v18.42l17.27-25c2.06-3.11,3.69-4.11,8.14-4.11,7,0,11,4.55,11,10.77a9.41,9.41,0,0,1-2.39,6.77L525.27,239l17.81,23.32a11.06,11.06,0,0,1,2.5,6.77c0,6.66-4.46,10.87-11,10.87a9.48,9.48,0,0,1-8.15-4.21l-17.48-25Z" transform="translate(-237.07 -201.04)"/><path class="cls-1" d="M283,310.62c-14.18,0-21.27,10.19-21.27,20.66,0,10.73,7.09,21.06,21.14,21.06h9.45c8.66,0,12.73,6.58,12.73,13,0,7-4.2,13.15-12.73,13.15H283c-30.59,0-45.95-23.08-45.95-46.56,0-23.75,15.88-47.9,47.92-47.9h7.35c8.4,0,13,6.58,13,13.29s-4.6,13.28-13,13.28Z" transform="translate(-237.07 -201.04)"/><path class="cls-1" d="M367.43,360.26H340.12l-4.07,10.33c-2.49,5.77-6.82,8.45-11.15,8.45-6.83,0-13.79-4.83-13.79-12.34a11.22,11.22,0,0,1,.92-5.23l31.24-70c2.11-4.69,4.86-7.78,11.82-7.78,6.7,0,9.58,3.09,11.56,7.92l28.48,69.9a11.93,11.93,0,0,1,.92,5.23c0,7.11-6.82,12.34-13.65,12.34-5.65,0-9.32-2.81-11.29-8.45Zm-19.3-20.53h12.34l-5.64-17Z" transform="translate(-237.07 -201.04)"/><path class="cls-1" d="M434.91,366c0,8.59-5.91,13-12.86,13s-12.61-4.42-12.61-13V310.35h-8.92c-8,0-12.74-6-12.74-13.15s4.73-13.15,12.74-13.15h43.06c8,0,12.86,6,12.86,13.15s-4.85,13.15-12.86,13.15h-8.67Z" transform="translate(-237.07 -201.04)"/><path class="cls-1" d="M524.84,352.34c8,0,12.87,5.91,12.87,13s-4.86,13.15-12.87,13.15H478c-10,0-14.18-5.37-14.18-11.27a17.33,17.33,0,0,1,3.68-10.6l34.4-46.29H476.92c-8,0-12.73-6-12.73-13.15s4.72-13.15,12.73-13.15h47.92c7.88,0,12.21,5.64,12.21,12.21,0,3.89-1.18,5.64-3,8.32l-33.61,47.76Z" transform="translate(-237.07 -201.04)"/><path class="cls-1" d="M434.08,415.58a4,4,0,0,0,.41,2.65c.64.93,2.1,1.4,4.39,1.4a7.9,7.9,0,0,0,3.33-.61,2.62,2.62,0,0,0,1.59-1.84,1.63,1.63,0,0,0-.6-1.79q-.84-.61-6.69-2.11-4.2-1.12-5.67-2.82t-.81-4.81a10.78,10.78,0,0,1,4.16-6.36,13.45,13.45,0,0,1,8.55-2.66q4.89,0,7.56,2c1.77,1.33,2.48,3.63,2.11,6.9h-6.84a3.7,3.7,0,0,0-.31-2.13c-.56-.95-1.74-1.42-3.55-1.42a6.09,6.09,0,0,0-3.32.71,2.67,2.67,0,0,0-1.29,1.66,1.45,1.45,0,0,0,.65,1.74q.88.57,6.72,1.94a10.18,10.18,0,0,1,5.49,3,5.82,5.82,0,0,1,1,5,10.57,10.57,0,0,1-4.25,6.48c-2.27,1.68-5.42,2.51-9.45,2.51s-7-.88-8.55-2.66a7.36,7.36,0,0,1-1.55-6.78Z" transform="translate(-237.07 -201.04)"/><path class="cls-1" d="M456.11,402.61l1-5h3.64l1.56-7.46h6.77l-1.56,7.46h4.24l-1,5h-4.24l-2.95,14.13c-.23,1.09-.23,1.77,0,2s1,.41,2.41.41h.66l.71,0-1.1,5.22-3.26.12q-4.87.18-6.27-1.71a4.64,4.64,0,0,1-.38-3.7l3.43-16.46Z" transform="translate(-237.07 -201.04)"/><path class="cls-1" d="M482.23,425.05q-6.74,0-9.18-4.18t-1.21-10.07a19.69,19.69,0,0,1,5.4-10,14.75,14.75,0,0,1,10.94-4.24q6.74,0,9.16,4.24a13.91,13.91,0,0,1,1.23,10,19.57,19.57,0,0,1-5.41,10.07A14.79,14.79,0,0,1,482.23,425.05Zm9.16-14.25c.56-2.68.46-4.74-.32-6.19a4.32,4.32,0,0,0-4.16-2.17,6.72,6.72,0,0,0-5.06,2.17,12.48,12.48,0,0,0-2.91,6.19q-.84,4,.33,6.21a4.3,4.3,0,0,0,4.16,2.18,6.7,6.7,0,0,0,5.06-2.18A12.59,12.59,0,0,0,491.39,410.8Z" transform="translate(-237.07 -201.04)"/><path class="cls-1" d="M513.06,397.39l-3.34,16.11a8.26,8.26,0,0,0-.19,3.43q.51,2,3.24,2a6.09,6.09,0,0,0,5.4-2.9,12.12,12.12,0,0,0,1.53-4.14l3-14.54h6.93l-5.54,26.73h-6.65l.77-3.78c-.08.08-.29.33-.62.74a6.77,6.77,0,0,1-1.13,1.08,12.53,12.53,0,0,1-3.54,2,11.44,11.44,0,0,1-3.63.54c-3.88,0-6.19-1.43-6.94-4.27q-.61-2.35.34-6.94l3.33-16.11Z" transform="translate(-237.07 -201.04)"/><path class="cls-1" d="M532.49,402.61l1-5h3.65l1.56-7.46h6.76l-1.56,7.46h4.25l-1,5H542.9L540,416.74c-.22,1.09-.23,1.77,0,2s1,.41,2.41.41H543l.71,0-1.11,5.22-3.26.12c-3.25.12-5.33-.45-6.26-1.71a4.64,4.64,0,0,1-.38-3.7l3.43-16.46Z" transform="translate(-237.07 -201.04)"/></svg>