<svg xmlns="http://www.w3.org/2000/svg" viewBox="0 0 840.26 138.1">
    <defs>
        <style>
            .cls-1 {
                fill: #2c2718;
            }
            /* Yellow */
            .cls-2 {
                fill: #f7be00;
              
               animation: 3s linear 1s infinite alternate ;
            }
        </style>
    </defs>
    <g id="background">
        <rect id="Rectangle_8" data-name="Rectangle 8" class="cls-1" x="0.62" y="0.85" width="839.41" height="137.25" />
    </g>
    <g id="pattern">
        <g id="Group_21" data-name="Group 21">
            <g id="Group_2" data-name="Group 2">
                <path id="Path_26" data-name="Path 26" class="cls-2"
                    d="M60.75,234.29,2.2,197.73l-.07-.18H1.77v138H4.05l56.7-.37L11.3,305.51l62-27.43-.74-.33.33-.13L8.5,252.06Z"
                    transform="translate(-1.77 -197.55)" />
                <path id="Path_27" data-name="Path 27" class="cls-2"
                    d="M73.26,278.08l61.57,27.26L85.39,335l58.58.38V197.55h0L85.39,234.12l52.25,17.77L72.85,277.62l.77.31Z"
                    transform="translate(-1.77 -197.55)" />
            </g>
            <g id="Group_3" data-name="Group 3">
                <path id="Path_28" data-name="Path 28" class="cls-2"
                    d="M363.2,298.32l58.55,36.37.07.18h.35V197.55H419.9l-56.7.37,49.44,29.54-62,27.28.75.33-.34.13,64.35,25.43Z"
                    transform="translate(-1.77 -197.55)" />
                <path id="Path_29" data-name="Path 29" class="cls-2"
                    d="M350.68,254.74l-61.57-27.11,49.45-29.54L280,197.71V334.87h0l58.55-36.38L286.31,280.8l64.79-25.6-.77-.3Z"
                    transform="translate(-1.77 -197.55)" />
            </g>
            <g id="Group_11" data-name="Group 11">
                <path id="Path_30" data-name="Path 30" class="cls-2"
                    d="M242.94,254.7,279.33,198l.18-.06v-.35H142.13v2.2l.37,54.95,29.55-47.92,27.3,60,.33-.72.13.32,25.44-62.35Z"
                    transform="translate(-1.77 -197.55)" />
                <path id="Path_31" data-name="Path 31" class="cls-2"
                    d="M199.35,266.82l-27.13,59.66-29.55-47.91-.38,56.76H279.51v0h0l-36.4-56.74L225.42,329.2l-25.61-62.78-.31.74Z"
                    transform="translate(-1.77 -197.55)" />
            </g>
            <g id="Group_4" data-name="Group 4">
                <g id="Group_10" data-name="Group 10">
                    <path id="Path_26-2" data-name="Path 26-2" class="cls-2"
                        d="M480.61,234.29l-58.55-36.56-.07-.18h-.36v138h2.28l56.7-.37-49.45-29.69,62-27.43-.74-.33.33-.13-64.35-25.56Z"
                        transform="translate(-1.77 -197.55)" />
                    <path id="Path_27-2" data-name="Path 27-2" class="cls-2"
                        d="M493.12,278.08l61.57,27.26L505.25,335l58.58.38V197.55h0l-58.55,36.56,52.25,17.77-64.79,25.73.77.31Z"
                        transform="translate(-1.77 -197.55)" />
                </g>
                <g id="Group_11-2" data-name="Group 11-2">
                    <path id="Path_28-2" data-name="Path 28-2" class="cls-2"
                        d="M783.06,298.32l58.55,36.37.07.18H842V197.55h-2.27l-56.7.37,49.44,29.54-62,27.28.74.33-.33.13,64.35,25.43Z"
                        transform="translate(-1.77 -197.55)" />
                    <path id="Path_29-2" data-name="Path 29-2" class="cls-2"
                        d="M770.54,254.74,709,227.63l49.45-29.54-58.58-.38V334.87h0l58.55-36.38L706.17,280.8,771,255.2l-.77-.3Z"
                        transform="translate(-1.77 -197.55)" />
                </g>
                <g id="Group_12" data-name="Group 12">
                    <path id="Path_30-2" data-name="Path 30-2" class="cls-2"
                        d="M663.28,254.7,699.2,198l.17-.06v-.35H563.79v2.2l.36,54.95,29.17-47.92,26.94,60,.32-.72.13.32,25.11-62.35Z"
                        transform="translate(-1.77 -197.55)" />
                    <path id="Path_31-2" data-name="Path 31-2" class="cls-2"
                        d="M620.26,266.82l-26.77,59.66-29.17-47.91L564,335.33H699.37v0h0l-35.91-56.74L646,329.2l-25.28-62.78-.3.74Z"
                        transform="translate(-1.77 -197.55)" />
                </g>
            </g>
        </g>
    </g>
</svg>