<svg id="Lager_1" data-name="Lager 1" xmlns="http://www.w3.org/2000/svg" viewBox="0 0 841.19 138.02"><defs><style>.cls-1{fill:#2c2718;}.cls-2{fill:#f7be00;}</style></defs><rect id="Rectangle_8" data-name="Rectangle 8" class="cls-1" y="0.64" width="839.41" height="137.25"/><g id="Group_21" data-name="Group 21"><g id="Group_2" data-name="Group 2"><path id="Path_26" data-name="Path 26" class="cls-2" d="M60,261.41,1.46,224.85l-.07-.18H1v138H3.31l56.7-.37L10.56,332.63l62-27.43-.74-.32.33-.14L7.76,279.18Z" transform="translate(-0.1 -224.67)"/><path id="Path_27" data-name="Path 27" class="cls-2" d="M72.52,305.2l61.57,27.26L84.64,362.14l58.58.39V224.67h0L84.65,261.24,136.89,279,72.11,304.75l.77.3Z" transform="translate(-0.1 -224.67)"/></g><g id="Group_3" data-name="Group 3"><path id="Path_28" data-name="Path 28" class="cls-2" d="M362.45,325.44,421,361.82l.06.17h.36V224.67h-2.28l-56.7.37,49.45,29.54-62,27.28.74.33-.33.13,64.35,25.43Z" transform="translate(-0.1 -224.67)"/><path id="Path_29" data-name="Path 29" class="cls-2" d="M349.94,281.87l-61.57-27.12,49.45-29.54-58.58-.38V362h0l58.56-36.38-52.25-17.68,64.79-25.61-.77-.3Z" transform="translate(-0.1 -224.67)"/></g><g id="Group_11" data-name="Group 11"><path id="Path_30" data-name="Path 30" class="cls-2" d="M242.2,281.82l36.39-56.74.18-.06v-.35H141.39v2.21l.36,54.94,29.56-47.91,27.29,60,.33-.72.13.32,25.44-62.35Z" transform="translate(-0.1 -224.67)"/><path id="Path_31" data-name="Path 31" class="cls-2" d="M198.6,293.94,171.48,353.6l-29.56-47.91-.38,56.76H278.77v0h0l-36.4-56.74-17.69,50.63-25.61-62.78-.3.75Z" transform="translate(-0.1 -224.67)"/></g><g id="Group_4" data-name="Group 4"><g id="Group_10" data-name="Group 10"><path id="Path_26-2" data-name="Path 26-2" class="cls-2" d="M479.87,261.41l-58.55-36.56-.07-.18h-.36v138h2.27l56.71-.37-49.45-29.69,62-27.43-.74-.32.33-.14-64.35-25.56Z" transform="translate(-0.1 -224.67)"/><path id="Path_27-2" data-name="Path 27-2" class="cls-2" d="M492.38,305.2,554,332.46,504.5,362.14l58.58.39V224.67h0L504.5,261.24,556.75,279,492,304.75l.76.3Z" transform="translate(-0.1 -224.67)"/></g><g id="Group_11-2" data-name="Group 11-2"><path id="Path_28-2" data-name="Path 28-2" class="cls-2" d="M782.31,325.44l58.55,36.38.07.17h.36V224.67H839l-56.7.37,49.45,29.54-62,27.28.74.33-.33.13,64.35,25.43Z" transform="translate(-0.1 -224.67)"/><path id="Path_29-2" data-name="Path 29-2" class="cls-2" d="M769.8,281.87l-61.57-27.12,49.45-29.54-58.58-.38V362h0l58.56-36.38-52.25-17.68,64.79-25.61-.77-.3Z" transform="translate(-0.1 -224.67)"/></g><g id="Group_12" data-name="Group 12"><path id="Path_30-2" data-name="Path 30-2" class="cls-2" d="M662.53,281.82l35.92-56.74.18-.06v-.35H563.05v2.21l.36,54.94,29.16-47.91,26.94,60,.33-.72.13.32,25.1-62.35Z" transform="translate(-0.1 -224.67)"/><path id="Path_31-2" data-name="Path 31-2" class="cls-2" d="M619.51,293.94,592.74,353.6l-29.16-47.91-.38,56.76H698.63v0h0L662.7,305.69l-17.46,50.63L620,293.54l-.3.75Z" transform="translate(-0.1 -224.67)"/></g></g></g></svg>